<mxfile host="app.diagrams.net" modified="2024-01-19T06:14:54.403Z" agent="Mozilla/5.0 (Macintosh; Intel Mac OS X 10_15_7) AppleWebKit/537.36 (KHTML, like Gecko) Chrome/120.0.0.0 Safari/537.36" version="22.1.21" etag="LEMXiPprWM8sPlKXEAcq" type="github">
  <diagram name="Page-1" id="b5hPrGGYxWc7cZ5PRPd1">
    <mxGraphModel>
      <root>
        <mxCell id="0" />
        <mxCell id="1" parent="0" />
      </root>
    </mxGraphModel>
  </diagram>
</mxfile>
